<svg width="15" height="15" viewBox="0 0 15 15" fill="none" xmlns="http://www.w3.org/2000/svg">
  <path d="M6.5 1.07735C7.1188 0.720085 7.8812 0.720085 8.5 1.07735L12.5622 3.42265C13.181 3.77992 13.5622 4.44017 13.5622 5.1547V9.8453C13.5622 10.5598 13.181 11.2201 12.5622 11.5774L8.5 13.9227C7.8812 14.2799 7.1188 14.2799 6.5 13.9226L2.43782 11.5773C1.81902 11.2201 1.43782 10.5598 1.43782 9.8453V5.1547C1.43782 4.44017 1.81902 3.77992 2.43782 3.42265L6.5 1.07735Z" fill="#7EC040" />
  <path d="M10.7653 6.01565L6.7653 10.0157C6.73046 10.0506 6.68906 10.0783 6.64348 10.0973C6.5979 10.1162 6.54903 10.1259 6.49967 10.1259C6.45032 10.1259 6.40145 10.1162 6.35587 10.0973C6.31028 10.0783 6.26889 10.0506 6.23405 10.0157L4.48405 8.26565C4.44917 8.23077 4.4215 8.18936 4.40262 8.14378C4.38374 8.0982 4.37402 8.04936 4.37402 8.00003C4.37402 7.95069 4.38374 7.90185 4.40262 7.85627C4.4215 7.81069 4.44917 7.76928 4.48405 7.7344C4.51893 7.69952 4.56034 7.67185 4.60592 7.65297C4.65149 7.63409 4.70034 7.62437 4.74967 7.62437C4.79901 7.62437 4.84785 7.63409 4.89343 7.65297C4.93901 7.67185 4.98042 7.69952 5.0153 7.7344L6.49999 9.21909L10.2347 5.48503C10.3051 5.41458 10.4007 5.375 10.5003 5.375C10.5999 5.375 10.6955 5.41458 10.7659 5.48503C10.8364 5.55547 10.8759 5.65102 10.8759 5.75065C10.8759 5.85028 10.8364 5.94583 10.7659 6.01628L10.7653 6.01565Z" fill="white" />
</svg>